<svg width="33" height="21" viewBox="0 0 33 21" fill="none" xmlns="http://www.w3.org/2000/svg">
<path d="M21.1971 18.2637H12.4478V2.53989H21.1973L21.1971 18.2637Z" fill="#EEEEEE"/>
<path d="M33.0001 10.4019C33.0001 15.9248 28.5236 20.4019 23.0014 20.4019C20.7593 20.4052 18.5818 19.6519 16.821 18.2638C19.1473 16.4328 20.6407 13.5917 20.6407 10.4019C20.6407 7.21218 19.1473 4.37106 16.821 2.54001C18.5817 1.152 20.7592 0.398675 23.0012 0.401929C28.5235 0.401929 32.9999 4.87901 32.9999 10.4019" fill="white"/>
<path d="M13.0022 10.4019C13.0022 7.21235 14.4957 4.37106 16.8212 2.54001C15.0609 1.15196 12.8836 0.398617 10.6419 0.401929C5.11962 0.401929 0.643188 4.87901 0.643188 10.4019C0.643188 15.9248 5.11962 20.4019 10.6419 20.4019C12.8837 20.4053 15.061 19.6519 16.8214 18.2638C14.496 16.4331 13.0022 13.5917 13.0022 10.4019Z" fill="#8D6859"/>
</svg>
