<svg width="19" height="25" viewBox="0 0 19 25" fill="none" xmlns="http://www.w3.org/2000/svg">
<path fill-rule="evenodd" clip-rule="evenodd" d="M1.38453 16.6667L1.38073 16.6718L1.37706 16.677C1.17216 16.9671 0.713182 17.0524 0.354247 16.7989C0.0669166 16.5959 -0.0194578 16.1437 0.225213 15.7864C0.590273 15.321 0.855398 14.777 1.02953 14.2452C1.21082 13.6915 1.29513 13.0623 1.29185 12.4453C1.28856 11.8282 1.19755 11.2 1.01038 10.6483C0.830591 10.1184 0.559688 9.57718 0.189692 9.11575C-0.0587705 8.76101 0.0227835 8.30794 0.307936 8.10195C0.664151 7.84464 1.12401 7.92499 1.33199 8.2129L1.33572 8.21807L1.33957 8.22314C1.80008 8.8304 2.1778 9.50509 2.40352 10.167C2.64111 10.9457 2.79246 11.699 2.79639 12.4373C2.80053 13.2142 2.72628 13.9496 2.44118 14.6735C2.13067 15.4619 1.82999 16.0661 1.38453 16.6667ZM4.71418 18.1087L4.72318 18.096L4.73144 18.0828C5.75212 16.4475 6.34084 14.4742 6.32989 12.4185C6.31895 10.3633 5.70955 8.39681 4.67199 6.77271C4.44714 6.41614 4.54814 5.99455 4.92714 5.72078C5.18167 5.53691 5.65953 5.60201 5.94305 5.98198C7.11448 7.84058 7.82206 10.0873 7.83443 12.4104C7.84723 14.8129 7.16415 16.9867 6.0115 18.8589C5.74486 19.2259 5.33666 19.3287 4.98465 19.1207C4.60303 18.8411 4.53328 18.3649 4.71418 18.1087ZM10.6892 3.53902L10.6992 3.55888L10.7109 3.57785C12.2982 6.16576 13.1803 9.15084 13.1975 12.3819C13.2147 15.6114 12.3652 18.6045 10.8069 21.2083C10.568 21.5925 10.1647 21.7007 9.75577 21.5104C9.38361 21.2679 9.28363 20.866 9.47802 20.46C10.8033 18.1064 11.6274 15.3329 11.6117 12.3903C11.5961 9.46087 10.8301 6.69181 9.38937 4.33802C9.19443 3.93612 9.29096 3.53585 9.6587 3.29054C10.1024 3.07859 10.5346 3.23394 10.6892 3.53902ZM15.3892 1.07616L15.396 1.08972L15.4037 1.10289C17.3272 4.42787 18.4573 8.22929 18.4793 12.3538C18.5012 16.474 17.4139 20.2836 15.5295 23.6264C15.2901 24.0062 14.8887 24.1125 14.4817 23.9231C14.1107 23.6813 14.0102 23.2812 14.2022 22.8765C16.0176 19.7782 16.9951 16.1885 16.9748 12.3618C16.9543 8.52514 15.8525 4.94942 14.0925 1.88163C13.872 1.4338 14.0274 0.99519 14.3352 0.839227C14.787 0.610302 15.2319 0.765701 15.3892 1.07616Z" fill="white"/>
</svg>
