<svg width="50" height="17" viewBox="0 0 50 17" fill="none" xmlns="http://www.w3.org/2000/svg">
<path d="M17.7538 15.88L20.2801 1.05938H24.3195L21.7924 15.88H17.7538ZM36.368 1.38451C35.2088 0.964598 33.9843 0.75389 32.7514 0.762199C28.7649 0.762199 25.9565 2.76982 25.9324 5.64774C25.9104 7.7748 27.9377 8.96118 29.4681 9.66894C31.0386 10.3949 31.5665 10.8576 31.5589 11.5056C31.5491 12.4977 30.3045 12.9506 29.1453 12.9506C27.5301 12.9506 26.6726 12.7238 25.3471 12.1741L24.8276 11.9389L24.2612 15.2524C25.2034 15.6653 26.9464 16.0237 28.7551 16.0418C32.9964 16.0418 35.7495 14.0577 35.7813 10.9846C35.7964 9.30069 34.7227 8.01901 32.3937 6.96267C30.9835 6.28213 30.1199 5.82087 30.129 5.12748C30.129 4.51272 30.8602 3.8549 32.4398 3.8549C33.4748 3.83173 34.5032 4.02489 35.4592 4.42202L35.8206 4.59289L36.368 1.38451V1.38451ZM46.7455 1.05938H43.6377C42.6751 1.05938 41.9545 1.32254 41.5318 2.28285L35.5582 15.8044H39.81C39.81 15.8044 40.4906 14.0063 40.6471 13.6115L45.7413 13.6176C45.8601 14.1288 46.2253 15.8044 46.2253 15.8044H50L46.7455 1.05938ZM41.804 10.5869C42.1375 9.73398 43.4116 6.44923 43.4116 6.44923C43.3874 6.48855 43.7428 5.59176 43.9462 5.03599L44.2192 6.3124C44.2192 6.3124 44.992 9.8459 45.153 10.5869H41.804ZM14.3261 1.05938L10.3851 11.1306L9.96538 9.0837C9.23191 6.7245 6.94606 4.1687 4.39026 2.88929L7.9941 15.8044L12.2528 15.7999L18.5901 1.05938H14.3065" fill="url(#paint0_linear_70_198)"/>
<path d="M6.53014 1.05894H0.0521702L0 1.36668C5.0617 2.5924 8.41068 5.55352 9.80125 9.11047L8.38648 2.30508C8.14225 1.3682 7.43451 1.08842 6.55813 1.05591" fill="url(#paint1_linear_70_198)"/>
<defs>
<linearGradient id="paint0_linear_70_198" x1="27.1951" y1="0.761963" x2="27.1951" y2="16.0418" gradientUnits="userSpaceOnUse">
<stop stop-color="white"/>
<stop offset="1" stop-color="white" stop-opacity="0.75"/>
</linearGradient>
<linearGradient id="paint1_linear_70_198" x1="4.90062" y1="1.05591" x2="4.90062" y2="9.11047" gradientUnits="userSpaceOnUse">
<stop stop-color="white"/>
<stop offset="1" stop-color="white" stop-opacity="0.75"/>
</linearGradient>
</defs>
</svg>
